# xmcd
#
# Track frame offsets: 
#        150
#        16501
#        31302
#        43503
#        60105
#        71856
#        88449
#        104423
#        119356
#        133019
#        148907
#        163355
#        177849
#        194106
#
# Disc length: 2801 seconds
#
# Revision: 2
# Processed by: cddbd v1.5.2PL0 Copyright (c) Steve Scherf et al.
# Submitted via: ExactAudioCopyFreeDBPlugin 1.0
#
DISCID=ce0aef0e
DTITLE=Tom Astor - Freunde für´s Leben [CD 2)
DYEAR=2010
DGENRE=Country
TTITLE0=Junger Adler (Version 2008)
TTITLE1=Freunde für´s Leben
TTITLE2=Danke, Johnny Cash
TTITLE3=Lieder wie diese
TTITLE4=Steh´ immer wieder auf
TTITLE5=No Smoking
TTITLE6=Ich will mehr
TTITLE7=Liebe lässt Wunder gescheh´n (Denken nicht an unsere Kinder)
TTITLE8=Ich geh´ gern vergessene Straßen
TTITLE9=Gib den Teufel nie die Hand
TTITLE10=Ich hab wieder Hunger
TTITLE11=Mein guter Freund
TTITLE12=Juanita, Juanita
TTITLE13=Zwischen Himmel und Erde
EXTD=
EXTT0=
EXTT1=
EXTT2=
EXTT3=
EXTT4=
EXTT5=
EXTT6=
EXTT7=
EXTT8=
EXTT9=
EXTT10=
EXTT11=
EXTT12=
EXTT13=
PLAYORDER=
